#!OML:ASF X:\für Bonn\!DataBase\2005_08_10_Bjorn_Final\c3d\bjorn.ASF
:FULLY-SPECIFIED
:DEGREES
277
root 16.2229 18.2449 0.958632 179.229 -103.614 -144.499
lowerback 47.8279 1.44269 8.46648
upperback 21.586 1.97646 -1.16184
thorax 4.32486 1.10993 -5.88075
lowerneck 1.03495 -7.79882 11.2301
upperneck -16.1946 -9.72162 3.50455
head -5.5034 -5.83268 -0.155857
rclavicle -3.49861e-014 -3.97569e-015
rhumerus 41.7707 8.70764 -40.033
rradius 32.7296
rwrist -2.54508
rhand -25.9735 18.5498
rfingers 7.12502
rthumb 0.571373 -11.4292
lclavicle -3.49861e-014 -3.97569e-015
lhumerus -12.0549 -27.6677 85.2654
lradius 49.2529
lwrist 2.60775
lhand -29.3443 -15.3337
lfingers 7.12502
lthumb -2.68419 14.6291
rfemur -67.6812 -7.84821 6.13743
rtibia 52.5049
rfoot -14.5527 -0.699524
rtoes -6.86603
lfemur -66.6996 2.02046 -27.4001
ltibia 49.043
lfoot -9.47963 4.09593
ltoes -18.6544
278
root 16.2224 18.2749 0.955284 179.279 -103.443 -144.842
lowerback 46.1186 1.61375 8.41778
upperback 22.4272 1.94361 -0.950049
thorax 4.6316 1.11623 -5.92544
lowerneck 0.960329 -7.73282 11.3762
upperneck -16.0842 -9.68068 3.22281
head -5.47548 -5.79685 -0.273298
rclavicle -3.18055e-014 -3.02153e-014
rhumerus 40.5455 9.06815 -41.0816
rradius 32.9046
rwrist -2.50925
rhand -24.7775 18.2582
rfingers 7.12502
rthumb 1.72646 -11.7146
lclavicle -3.18055e-014 -3.02153e-014
lhumerus -12.0305 -27.5333 85.1839
lradius 48.9439
lwrist 2.50393
lhand -29.4732 -15.4998
lfingers 7.12502
lthumb -2.80871 14.4615
rfemur -67.1843 -7.77534 6.38036
rtibia 52.0547
rfoot -14.3553 -0.534077
rtoes -6.71334
lfemur -66.1576 2.02693 -27.086
ltibia 48.6564
lfoot -9.38321 4.32521
ltoes -18.6055
279
root 16.2192 18.3059 0.951301 179.217 -103.262 -145.143
lowerback 45.4539 1.68672 8.33683
upperback 22.4355 1.96544 -0.92053
thorax 4.79209 1.11688 -5.86298
lowerneck 0.871527 -7.64272 11.4949
upperneck -15.978 -9.60972 2.94734
head -5.443 -5.74582 -0.387363
rclavicle -4.45278e-014 1.90833e-014
rhumerus 39.3366 9.44578 -42.0446
rradius 33.0839
rwrist -2.51437
rhand -23.638 17.827
rfingers 7.12502
rthumb 2.82697 -12.1341
lclavicle -4.45278e-014 1.90833e-014
lhumerus -11.9541 -27.357 85.1103
lradius 48.5933
lwrist 2.39378
lhand -29.6261 -15.6759
lfingers 7.12502
lthumb -2.95638 14.2834
rfemur -66.5844 -7.667 6.59764
rtibia 51.5842
rfoot -14.1853 -0.36979
rtoes -6.54443
lfemur -65.5091 2.03098 -26.7656
ltibia 48.2574
lfoot -9.30739 4.59685
ltoes -18.5848
280
root 16.2149 18.3397 0.947424 179.254 -103.104 -145.597
lowerback 44.8387 1.73912 8.27788
upperback 22.427 1.97875 -0.867528
thorax 4.92577 1.11127 -5.78277
lowerneck 0.742647 -7.5472 11.5805
upperneck -15.8057 -9.54335 2.649
head -5.38177 -5.69039 -0.506933
rclavicle 5.40694e-014 -4.37326e-014
rhumerus 38.1211 9.83109 -42.9604
rradius 33.2368
rwrist -2.51663
rhand -22.5289 17.3048
rfingers 7.12502
rthumb 3.89803 -12.6393
lclavicle 5.40694e-014 -4.37326e-014
lhumerus -11.9107 -27.1521 85.0645
lradius 48.2228
lwrist 2.28405
lhand -29.8013 -15.8486
lfingers 7.12502
lthumb -3.12559 14.1083
rfemur -65.9019 -7.57593 6.85347
rtibia 51.0974
rfoot -14.0254 -0.201581
rtoes -6.47918
lfemur -64.7883 2.03555 -26.417
ltibia 47.8325
lfoot -9.22714 4.83575
ltoes -18.5272
281
root 16.2083 18.3758 0.94234 179.206 -102.942 -146.04
lowerback 44.326 1.78966 8.183
upperback 22.4061 1.9836 -0.802292
thorax 5.0194 1.09364 -5.66817
lowerneck 0.551876 -7.41786 11.59
upperneck -15.6006 -9.43955 2.38497
head -5.29186 -5.61357 -0.610693
rclavicle 1.90833e-014 1.27222e-014
rhumerus 36.9522 10.2719 -43.7872
rradius 33.3594
rwrist -2.60225
rhand -21.4908 16.8867
rfingers 7.12502
rthumb 4.90044 -13.0367
lclavicle 1.90833e-014 1.27222e-014
lhumerus -11.8564 -26.9075 85.0304
lradius 47.833
lwrist 2.13247
lhand -29.9845 -16.0697
lfingers 7.12502
lthumb -3.30252 13.8845
rfemur -65.1199 -7.46276 7.09779
rtibia 50.5905
rfoot -13.8573 -0.0341709
rtoes -6.25405
lfemur -63.9652 2.05867 -26.0784
ltibia 47.3904
lfoot -9.15051 5.0622
ltoes -18.6144
282
root 16.1995 18.4143 0.937483 179.224 -102.795 -146.627
lowerback 43.8856 1.80502 8.17312
upperback 22.3863 1.97923 -0.763112
thorax 5.10459 1.08234 -5.62134
lowerneck 0.247189 -7.28107 11.6478
upperneck -15.3128 -9.33794 2.13145
head -5.15925 -5.53756 -0.724619
rclavicle 6.67916e-014 -2.0276e-014
rhumerus 35.7657 10.6786 -44.606
rradius 33.4108
rwrist -2.71492
rhand -20.5781 16.5018
rfingers 7.12502
rthumb 5.78165 -13.3993
lclavicle 6.67916e-014 -2.0276e-014
lhumerus -11.7993 -26.7293 84.93
lradius 47.4803
lwrist 2.03966
lhand -30.1451 -16.2896
lfingers 7.12502
lthumb -3.4576 13.6621
rfemur -64.2288 -7.34833 7.36562
rtibia 50.0689
rfoot -13.718 0.155203
rtoes -6.05202
lfemur -63.0283 2.04936 -25.6807
ltibia 46.9191
lfoot -9.09226 5.31378
ltoes -18.4933
283
root 16.189 18.453 0.932592 179.106 -102.634 -147.13
lowerback 43.4014 1.82491 8.11404
upperback 22.4731 1.94855 -0.725958
thorax 5.13545 1.05528 -5.56593
lowerneck -0.120965 -7.13249 11.6855
upperneck -14.9595 -9.23251 1.86636
head -4.99468 -5.45551 -0.842901
rclavicle 3.18055e-014 -2.66371e-014
rhumerus 34.6359 11.0654 -45.5386
rradius 33.3463
rwrist -2.74254
rhand -19.7269 16.1949
rfingers 7.12502
rthumb 6.60347 -13.6822
lclavicle 3.18055e-014 -2.66371e-014
lhumerus -11.79 -26.4418 84.8367
lradius 47.1198
lwrist 1.82548
lhand -30.3191 -16.4909
lfingers 7.12502
lthumb -3.62566 13.458
rfemur -63.2672 -7.22237 7.6119
rtibia 49.533
rfoot -13.5812 0.34014
rtoes -5.96464
lfemur -62.0158 2.06965 -25.3236
ltibia 46.4357
lfoot -9.01582 5.55183
ltoes -18.5251
284
root 16.1766 18.4917 0.926743 178.805 -102.488 -147.467
lowerback 43.0847 1.82771 8.0302
upperback 22.4133 1.91781 -0.71288
thorax 5.13498 1.02218 -5.50188
lowerneck -0.547738 -7.00913 11.6862
upperneck -14.5492 -9.17323 1.58724
head -4.80368 -5.39194 -0.960048
rclavicle -6.36111e-015 3.26007e-014
rhumerus 33.5192 11.4165 -46.4854
rradius 33.1502
rwrist -2.70502
rhand -19.0738 15.9669
rfingers 7.12502
rthumb 7.2339 -13.8894
lclavicle -6.36111e-015 3.26007e-014
lhumerus -11.7791 -26.1338 84.7435
lradius 46.7605
lwrist 1.6376
lhand -30.4742 -16.6637
lfingers 7.12502
lthumb -3.77536 13.2826
rfemur -62.2695 -7.09592 7.80966
rtibia 48.9918
rfoot -13.4684 0.487465
rtoes -5.97609
lfemur -60.9589 2.04988 -24.9902
ltibia 45.9358
lfoot -8.95277 5.82244
ltoes -18.6699
285
root 16.1623 18.531 0.920795 178.51 -102.306 -147.855
lowerback 42.8159 1.84535 7.9415
upperback 22.3352 1.90721 -0.695194
thorax 5.10429 0.995978 -5.43627
lowerneck -0.983186 -6.89167 11.6936
upperneck -14.1247 -9.12447 1.27929
head -4.60952 -5.33289 -1.08608
rclavicle -9.54166e-015 1.31198e-014
rhumerus 32.3698 11.7673 -47.4248
rradius 32.9464
rwrist -2.69002
rhand -18.4351 15.7439
rfingers 7.12502
rthumb 7.85044 -14.0904
lclavicle -9.54166e-015 1.31198e-014
lhumerus -11.8315 -25.8616 84.6696
lradius 46.4445
lwrist 1.4776
lhand -30.6688 -16.8187
lfingers 7.12502
lthumb -3.96335 13.1242
rfemur -61.2169 -6.95151 8.028
rtibia 48.4386
rfoot -13.34 0.683869
rtoes -5.80858
lfemur -59.8484 2.07723 -24.6529
ltibia 45.4356
lfoot -8.91057 6.06003
ltoes -18.7453
286
root 16.1464 18.5691 0.915009 178.249 -102.129 -148.305
lowerback 42.5711 1.84484 7.88419
upperback 22.2289 1.89326 -0.702112
thorax 5.03797 0.972813 -5.41177
lowerneck -1.39159 -6.77457 11.7458
upperneck -13.6549 -9.06474 0.985312
head -4.40765 -5.26917 -1.21404
rclavicle -1.01778e-013 4.69132e-014
rhumerus 31.1693 12.128 -48.4079
rradius 32.7007
rwrist -2.72088
rhand -17.8934 15.5381
rfingers 7.12502
rthumb 8.37322 -14.276
lclavicle -1.01778e-013 4.69132e-014
lhumerus -11.934 -25.5808 84.5653
lradius 46.1255
lwrist 1.27408
lhand -30.815 -16.9857
lfingers 7.12502
lthumb -4.10451 12.9545
rfemur -60.1287 -6.81648 8.25791
rtibia 47.8874
rfoot -13.2189 0.887185
rtoes -5.73014
lfemur -58.6968 2.08582 -24.2978
ltibia 44.9287
lfoot -8.87608 6.32366
ltoes -18.7186
287
root 16.128 18.6086 0.908769 177.97 -101.926 -148.778
lowerback 42.383 1.84766 7.85643
upperback 22.0702 1.9054 -0.735224
thorax 4.90301 0.965463 -5.43783
lowerneck -1.67237 -6.68471 11.8359
upperneck -13.1731 -9.01509 0.709147
head -4.22543 -5.21127 -1.33596
rclavicle -3.18055e-014 -1.19271e-015
rhumerus 29.8636 12.4223 -49.4874
rradius 32.3629
rwrist -2.68782
rhand -17.3005 15.4672
rfingers 7.12502
rthumb 8.94536 -14.3231
lclavicle -3.18055e-014 -1.19271e-015
lhumerus -12.1355 -25.3833 84.4638
lradius 45.8113
lwrist 1.09653
lhand -30.9644 -17.0772
lfingers 7.12502
lthumb -4.24878 12.8602
rfemur -58.9821 -6.65741 8.49462
rtibia 47.3262
rfoot -13.103 1.11834
rtoes -5.53286
lfemur -57.4838 2.08468 -23.914
ltibia 44.4212
lfoot -8.8467 6.62122
ltoes -18.7504
288
root 16.1079 18.646 0.901981 177.612 -101.75 -149.19
lowerback 42.1728 1.84783 7.82996
upperback 21.8985 1.91889 -0.763019
thorax 4.75959 0.959186 -5.4591
lowerneck -1.85464 -6.61014 11.8929
upperneck -12.6974 -8.96358 0.47848
head -4.05792 -5.1526 -1.43461
rclavicle 1.59028e-014 -3.81667e-014
rhumerus 28.4781 12.7196 -50.555
rradius 32.0449
rwrist -2.72321
rhand -16.7904 15.3456
rfingers 7.12502
rthumb 9.43762 -14.4231
lclavicle 1.59028e-014 -3.81667e-014
lhumerus -12.4002 -25.208 84.3834
lradius 45.5305
lwrist 0.928793
lhand -31.0839 -17.1754
lfingers 7.12502
lthumb -4.36411 12.7596
rfemur -57.8108 -6.52884 8.7205
rtibia 46.7717
rfoot -12.9973 1.31601
rtoes -5.5074
lfemur -56.2431 2.08204 -23.5676
ltibia 43.9098
lfoot -8.82341 6.86463
ltoes -18.9292
